<svg width="1024" height="1024" viewBox="0 0 1024 1024" fill="none" xmlns="http://www.w3.org/2000/svg">
<rect width="1024" height="1024" rx="512" fill="#1F2937"/>
<path d="M352 832C382.4 832 409.067 822.933 432 804.8C454.933 786.667 471.467 762.667 481.6 732.8C490.667 706.133 500.405 686.4 510.816 673.6C521.227 660.8 538.421 645.867 562.4 628.8C598.133 603.2 625.333 571.328 644 533.184C662.667 495.04 672 455.979 672 416C672 353.067 650.4 300 607.2 256.8C564 213.6 510.933 192 448 192C391.467 192 342.805 209.472 302.016 244.416C261.227 279.36 236.288 323.755 227.2 377.6C225.6 386.667 227.339 394.667 232.416 401.6C237.493 408.533 244.555 412.8 253.6 414.4C262.645 416 270.645 414.272 277.6 409.216C284.555 404.16 288.821 397.088 290.4 388C296.8 349.6 314.667 318.005 344 293.216C373.333 268.427 408 256.021 448 256C493.333 256 531.339 271.339 562.016 302.016C592.693 332.693 608.021 370.688 608 416C608 447.467 600.533 477.739 585.6 506.816C570.667 535.893 549.6 560.021 522.4 579.2C496.8 597.333 476.405 614.805 461.216 631.616C446.027 648.427 433.888 671.221 424.8 700C418.933 718.667 410.005 734.667 398.016 748C386.027 761.333 370.688 768 352 768C334.933 768 320 761.739 307.2 749.216C294.4 736.693 288 721.621 288 704C288 690.133 289.333 676.405 292 662.816C294.667 649.227 298.933 636.821 304.8 625.6L330.4 645.6C337.867 651.467 346.4 653.6 356 652C365.6 650.4 372.8 645.333 377.6 636.8L439.2 528C471.733 530.667 500 520.928 524 498.784C548 476.64 560 449.045 560 416C560 385.067 549.067 358.667 527.2 336.8C505.333 314.933 478.933 304 448 304C413.333 304 384.939 317.067 362.816 343.2C340.693 369.333 332.288 399.2 337.6 432.8L234.4 522.4C226.933 528.8 223.467 536.939 224 546.816C224.533 556.693 228.533 564.821 236 571.2L253.6 585.6C242.933 602.667 235.339 621.461 230.816 641.984C226.293 662.507 224.021 683.179 224 704C224 739.2 236.533 769.333 261.6 794.4C286.667 819.467 316.8 832 352 832ZM736 416C736 449.067 730.528 480.8 719.584 511.2C708.64 541.6 693.056 569.6 672.832 595.2C666.965 602.667 664.171 610.805 664.448 619.616C664.725 628.427 668.053 635.755 674.432 641.6C680.832 648 688.437 650.933 697.248 650.4C706.059 649.867 713.387 646.133 719.232 639.2C745.365 607.2 765.365 572.139 779.232 534.016C793.099 495.893 800.021 456.555 800 416C800 374.4 793.067 334.4 779.2 296C765.333 257.6 745.333 222.4 719.2 190.4C713.333 183.467 706.005 179.872 697.216 179.616C688.427 179.36 680.821 182.421 674.4 188.8C667.979 195.179 664.651 202.784 664.416 211.616C664.181 220.448 666.976 228.576 672.8 236C693.067 261.6 708.672 289.6 719.616 320C730.56 350.4 736.021 382.4 736 416Z" fill="white"/>
</svg>
